<?xml version="1.0" encoding="UTF-8"?>
<svg xmlns="http://www.w3.org/2000/svg" width="24" height="24" viewBox="0 0 24 24">
  <g fill="none" fill-rule="evenodd">
    <path d="M24 12.273c0-.818-.073-1.636-.218-2.436H12.245v4.612h6.562c-.273 1.472-1.127 2.727-2.4 3.563v2.946h3.873c2.272-2.091 3.72-5.182 3.72-8.685z" fill="#4285F4"/>
    <path d="M12.245 24c3.272 0 6.018-1.073 8.018-2.942l-3.873-2.946c-1.091.745-2.491 1.182-4.145 1.182-3.182 0-5.873-2.127-6.836-4.964H1.4v3.073C3.4 21.49 7.509 24 12.245 24z" fill="#34A853"/>
    <path d="M5.409 14.33c-.273-.873-.427-1.8-.427-2.745 0-.946.154-1.872.427-2.745V5.767H1.4C.5 7.582 0 9.727 0 11.586c0 1.86.5 4.004 1.4 5.818l4.009-3.073z" fill="#FBBC05"/>
    <path d="M12.245 4.8c1.781 0 3.382.609 4.645 1.8l3.491-3.491C18.263 1.127 15.518 0 12.245 0 7.509 0 3.4 2.509 1.4 6.218l4.009 3.073C6.372 6.455 9.063 4.8 12.245 4.8z" fill="#EA4335"/>
  </g>
  <title>Google G Logo</title>
</svg>